<svg xmlns="http://www.w3.org/2000/svg" viewBox="0 0 1280 990" width="1280" height="990" role="img" aria-labelledby="t d">
<title id="t">Taskly · Use cases</title>
<desc id="d">Use case diagram of Taskly. A visitor registers and logs in. A user, on a trial, full or read-only licence, manages projects and issues, tracks time and receives notifications. An administrator uses the admin app to search workbenches, change licences, delete users and repair data. Background services send reminders and digests, expire trials, clean up deletions and process uploads, and they notify users.</desc>
<defs>
  <marker id="arrow" viewBox="0 0 10 10" refX="9" refY="5" markerWidth="8" markerHeight="8" orient="auto-start-reverse"><path d="M0,0 L10,5 L0,10 z" fill="#4f9bec"/></marker>
  <marker id="arrow-muted" viewBox="0 0 10 10" refX="9" refY="5" markerWidth="8" markerHeight="8" orient="auto-start-reverse"><path d="M0,0 L10,5 L0,10 z" fill="#7e91a8"/></marker>
  <marker id="arrow-teal" viewBox="0 0 10 10" refX="9" refY="5" markerWidth="8" markerHeight="8" orient="auto-start-reverse"><path d="M0,0 L10,5 L0,10 z" fill="#56cdd6"/></marker>
</defs>
<rect width="1280" height="990" rx="18" fill="#0b1119"/>
<text x="40" y="52" font-family="'Segoe UI', Inter, system-ui, -apple-system, sans-serif" font-size="20" font-weight="700" fill="#e8eef6" text-anchor="start">Taskly</text><text x="40" y="74" font-family="'Segoe UI', Inter, system-ui, -apple-system, sans-serif" font-size="13" font-weight="400" fill="#9fb0c3" text-anchor="start">Who does what: four actors, grouped by the job they come to do</text><rect x="250" y="96" width="790" height="862" rx="16" fill="none" stroke="#4f9bec" stroke-opacity="0.45"/><text x="1024" y="120" font-family="'Cascadia Mono', Consolas, 'SFMono-Regular', Menlo, monospace" font-size="13" font-weight="700" fill="#4f9bec" text-anchor="end">Taskly</text><rect x="286" y="136" width="360" height="188" rx="12" fill="#2b6068"/><rect x="280" y="130" width="360" height="188" rx="12" fill="#162733" stroke="#56cdd6" stroke-width="1.8"/><text x="298" y="158" font-family="'Segoe UI', Inter, system-ui, -apple-system, sans-serif" font-size="13" font-weight="700" fill="#9fb0c3" text-anchor="start">Account</text><ellipse cx="463" cy="195" rx="166" ry="18" fill="#2b6068"/><ellipse cx="460" cy="192" rx="166" ry="18" fill="#1e3c48" stroke="#56cdd6" stroke-width="1.4"/><text x="460" y="196.5" font-family="'Segoe UI', Inter, system-ui, -apple-system, sans-serif" font-size="12.5" font-weight="400" fill="#e8eef6" text-anchor="middle">Register and verify an email</text><ellipse cx="463" cy="241" rx="166" ry="18" fill="#2b6068"/><ellipse cx="460" cy="238" rx="166" ry="18" fill="#1e3c48" stroke="#56cdd6" stroke-width="1.4"/><text x="460" y="242.5" font-family="'Segoe UI', Inter, system-ui, -apple-system, sans-serif" font-size="12.5" font-weight="400" fill="#e8eef6" text-anchor="middle">Log in or reset a password</text><ellipse cx="463" cy="287" rx="166" ry="18" fill="#2b6068"/><ellipse cx="460" cy="284" rx="166" ry="18" fill="#1e3c48" stroke="#56cdd6" stroke-width="1.4"/><text x="460" y="288.5" font-family="'Segoe UI', Inter, system-ui, -apple-system, sans-serif" font-size="12.5" font-weight="400" fill="#e8eef6" text-anchor="middle">Pick a licence; a trial seeds a demo board</text><rect x="286" y="344" width="360" height="372" rx="12" fill="#284b72"/><rect x="280" y="338" width="360" height="372" rx="12" fill="#162435" stroke="#4f9bec" stroke-width="1.8"/><text x="298" y="366" font-family="'Segoe UI', Inter, system-ui, -apple-system, sans-serif" font-size="13" font-weight="700" fill="#9fb0c3" text-anchor="start">Work</text><ellipse cx="463" cy="403" rx="166" ry="18" fill="#284b72"/><ellipse cx="460" cy="400" rx="166" ry="18" fill="#1d334c" stroke="#4f9bec" stroke-width="1.4"/><text x="460" y="404.5" font-family="'Segoe UI', Inter, system-ui, -apple-system, sans-serif" font-size="12.5" font-weight="400" fill="#e8eef6" text-anchor="middle">Manage projects and contributors</text><ellipse cx="463" cy="449" rx="166" ry="18" fill="#284b72"/><ellipse cx="460" cy="446" rx="166" ry="18" fill="#1d334c" stroke="#4f9bec" stroke-width="1.4"/><text x="460" y="450.5" font-family="'Segoe UI', Inter, system-ui, -apple-system, sans-serif" font-size="12.5" font-weight="400" fill="#e8eef6" text-anchor="middle">Create, edit and move issues</text><ellipse cx="463" cy="495" rx="166" ry="18" fill="#284b72"/><ellipse cx="460" cy="492" rx="166" ry="18" fill="#1d334c" stroke="#4f9bec" stroke-width="1.4"/><text x="460" y="496.5" font-family="'Segoe UI', Inter, system-ui, -apple-system, sans-serif" font-size="12.5" font-weight="400" fill="#e8eef6" text-anchor="middle">Split issues into subtasks</text><ellipse cx="463" cy="541" rx="166" ry="18" fill="#284b72"/><ellipse cx="460" cy="538" rx="166" ry="18" fill="#1d334c" stroke="#4f9bec" stroke-width="1.4"/><text x="460" y="542.5" font-family="'Segoe UI', Inter, system-ui, -apple-system, sans-serif" font-size="12.5" font-weight="400" fill="#e8eef6" text-anchor="middle">Comment and react</text><ellipse cx="463" cy="587" rx="166" ry="18" fill="#284b72"/><ellipse cx="460" cy="584" rx="166" ry="18" fill="#1d334c" stroke="#4f9bec" stroke-width="1.4"/><text x="460" y="588.5" font-family="'Segoe UI', Inter, system-ui, -apple-system, sans-serif" font-size="12.5" font-weight="400" fill="#e8eef6" text-anchor="middle">Attach files</text><ellipse cx="463" cy="633" rx="166" ry="18" fill="#284b72"/><ellipse cx="460" cy="630" rx="166" ry="18" fill="#1d334c" stroke="#4f9bec" stroke-width="1.4"/><text x="460" y="634.5" font-family="'Segoe UI', Inter, system-ui, -apple-system, sans-serif" font-size="12.5" font-weight="400" fill="#e8eef6" text-anchor="middle">Track time on a calendar</text><ellipse cx="463" cy="679" rx="166" ry="18" fill="#284b72"/><ellipse cx="460" cy="676" rx="166" ry="18" fill="#1d334c" stroke="#4f9bec" stroke-width="1.4"/><text x="460" y="680.5" font-family="'Segoe UI', Inter, system-ui, -apple-system, sans-serif" font-size="12.5" font-weight="400" fill="#e8eef6" text-anchor="middle">See reports and charts</text><rect x="286" y="736" width="360" height="188" rx="12" fill="#426250"/><rect x="280" y="730" width="360" height="188" rx="12" fill="#1a2730" stroke="#8fd39d" stroke-width="1.8"/><text x="298" y="758" font-family="'Segoe UI', Inter, system-ui, -apple-system, sans-serif" font-size="13" font-weight="700" fill="#9fb0c3" text-anchor="start">Stay informed</text><ellipse cx="463" cy="795" rx="166" ry="18" fill="#426250"/><ellipse cx="460" cy="792" rx="166" ry="18" fill="#293d3e" stroke="#8fd39d" stroke-width="1.4"/><text x="460" y="796.5" font-family="'Segoe UI', Inter, system-ui, -apple-system, sans-serif" font-size="12.5" font-weight="400" fill="#e8eef6" text-anchor="middle">See teammates’ moves live</text><ellipse cx="463" cy="841" rx="166" ry="18" fill="#426250"/><ellipse cx="460" cy="838" rx="166" ry="18" fill="#293d3e" stroke="#8fd39d" stroke-width="1.4"/><text x="460" y="842.5" font-family="'Segoe UI', Inter, system-ui, -apple-system, sans-serif" font-size="12.5" font-weight="400" fill="#e8eef6" text-anchor="middle">Get live notifications</text><ellipse cx="463" cy="887" rx="166" ry="18" fill="#426250"/><ellipse cx="460" cy="884" rx="166" ry="18" fill="#293d3e" stroke="#8fd39d" stroke-width="1.4"/><text x="460" y="888.5" font-family="'Segoe UI', Inter, system-ui, -apple-system, sans-serif" font-size="12.5" font-weight="400" fill="#e8eef6" text-anchor="middle">Set notification preferences</text><rect x="666" y="136" width="350" height="280" rx="12" fill="#585073"/><rect x="660" y="130" width="350" height="280" rx="12" fill="#1d2435" stroke="#c3a6ef" stroke-width="1.8"/><text x="678" y="158" font-family="'Segoe UI', Inter, system-ui, -apple-system, sans-serif" font-size="13" font-weight="700" fill="#9fb0c3" text-anchor="start">Operate (admin app)</text><ellipse cx="838" cy="195" rx="161" ry="18" fill="#585073"/><ellipse cx="835" cy="192" rx="161" ry="18" fill="#32354d" stroke="#c3a6ef" stroke-width="1.4"/><text x="835" y="196.5" font-family="'Segoe UI', Inter, system-ui, -apple-system, sans-serif" font-size="12.5" font-weight="400" fill="#e8eef6" text-anchor="middle">Search user workbenches</text><ellipse cx="838" cy="241" rx="161" ry="18" fill="#585073"/><ellipse cx="835" cy="238" rx="161" ry="18" fill="#32354d" stroke="#c3a6ef" stroke-width="1.4"/><text x="835" y="242.5" font-family="'Segoe UI', Inter, system-ui, -apple-system, sans-serif" font-size="12.5" font-weight="400" fill="#e8eef6" text-anchor="middle">Change a user’s licence</text><ellipse cx="838" cy="287" rx="161" ry="18" fill="#585073"/><ellipse cx="835" cy="284" rx="161" ry="18" fill="#32354d" stroke="#c3a6ef" stroke-width="1.4"/><text x="835" y="288.5" font-family="'Segoe UI', Inter, system-ui, -apple-system, sans-serif" font-size="12.5" font-weight="400" fill="#e8eef6" text-anchor="middle">Delete a user and their data</text><ellipse cx="838" cy="333" rx="161" ry="18" fill="#585073"/><ellipse cx="835" cy="330" rx="161" ry="18" fill="#32354d" stroke="#c3a6ef" stroke-width="1.4"/><text x="835" y="334.5" font-family="'Segoe UI', Inter, system-ui, -apple-system, sans-serif" font-size="12.5" font-weight="400" fill="#e8eef6" text-anchor="middle">Repair soft delete and positions</text><ellipse cx="838" cy="379" rx="161" ry="18" fill="#585073"/><ellipse cx="835" cy="376" rx="161" ry="18" fill="#32354d" stroke="#c3a6ef" stroke-width="1.4"/><text x="835" y="380.5" font-family="'Segoe UI', Inter, system-ui, -apple-system, sans-serif" font-size="12.5" font-weight="400" fill="#e8eef6" text-anchor="middle">Retry a failed deletion</text><rect x="666" y="456" width="350" height="280" rx="12" fill="#65523c"/><rect x="660" y="450" width="350" height="280" rx="12" fill="#1e252d" stroke="#e2ab6d" stroke-width="1.8"/><text x="678" y="478" font-family="'Segoe UI', Inter, system-ui, -apple-system, sans-serif" font-size="13" font-weight="700" fill="#9fb0c3" text-anchor="start">Automated</text><ellipse cx="838" cy="515" rx="161" ry="18" fill="#65523c"/><ellipse cx="835" cy="512" rx="161" ry="18" fill="#373635" stroke="#e2ab6d" stroke-width="1.4"/><text x="835" y="516.5" font-family="'Segoe UI', Inter, system-ui, -apple-system, sans-serif" font-size="12.5" font-weight="400" fill="#e8eef6" text-anchor="middle">Send deadline reminders</text><ellipse cx="838" cy="561" rx="161" ry="18" fill="#65523c"/><ellipse cx="835" cy="558" rx="161" ry="18" fill="#373635" stroke="#e2ab6d" stroke-width="1.4"/><text x="835" y="562.5" font-family="'Segoe UI', Inter, system-ui, -apple-system, sans-serif" font-size="12.5" font-weight="400" fill="#e8eef6" text-anchor="middle">Send the weekly digest</text><ellipse cx="838" cy="607" rx="161" ry="18" fill="#65523c"/><ellipse cx="835" cy="604" rx="161" ry="18" fill="#373635" stroke="#e2ab6d" stroke-width="1.4"/><text x="835" y="608.5" font-family="'Segoe UI', Inter, system-ui, -apple-system, sans-serif" font-size="12.5" font-weight="400" fill="#e8eef6" text-anchor="middle">Warn and expire trials</text><ellipse cx="838" cy="653" rx="161" ry="18" fill="#65523c"/><ellipse cx="835" cy="650" rx="161" ry="18" fill="#373635" stroke="#e2ab6d" stroke-width="1.4"/><text x="835" y="654.5" font-family="'Segoe UI', Inter, system-ui, -apple-system, sans-serif" font-size="12.5" font-weight="400" fill="#e8eef6" text-anchor="middle">Clean up scheduled deletions</text><ellipse cx="838" cy="699" rx="161" ry="18" fill="#65523c"/><ellipse cx="835" cy="696" rx="161" ry="18" fill="#373635" stroke="#e2ab6d" stroke-width="1.4"/><text x="835" y="700.5" font-family="'Segoe UI', Inter, system-ui, -apple-system, sans-serif" font-size="12.5" font-weight="400" fill="#e8eef6" text-anchor="middle">Process attachment uploads</text><circle cx="135" cy="176" r="11" fill="none" stroke="#e8eef6" stroke-width="1.8"/><path d="M135,187 L135,216 M118,198 L152,198 M135,216 L122,238 M135,216 L148,238" stroke="#e8eef6" stroke-width="1.8" fill="none" stroke-linecap="round"/><text x="135" y="260" font-family="'Segoe UI', Inter, system-ui, -apple-system, sans-serif" font-size="13.5" font-weight="700" fill="#e8eef6" text-anchor="middle">Visitor</text><path d="M160,190 L280,200" stroke="#7e91a8" stroke-width="1.4" fill="none"/><circle cx="135" cy="490" r="11" fill="none" stroke="#e8eef6" stroke-width="1.8"/><path d="M135,501 L135,530 M118,512 L152,512 M135,530 L122,552 M135,530 L148,552" stroke="#e8eef6" stroke-width="1.8" fill="none" stroke-linecap="round"/><text x="135" y="574" font-family="'Segoe UI', Inter, system-ui, -apple-system, sans-serif" font-size="13.5" font-weight="700" fill="#e8eef6" text-anchor="middle">User</text><text x="155" y="468" font-family="'Segoe UI', Inter, system-ui, -apple-system, sans-serif" font-size="11.5" font-weight="400" fill="#7e91a8" text-anchor="end" font-style="italic">trial, full or read-only</text><path d="M160,504 L280,278" stroke="#7e91a8" stroke-width="1.4" fill="none"/><path d="M160,512 L280,512" stroke="#7e91a8" stroke-width="1.4" fill="none"/><path d="M160,524 L280,770" stroke="#7e91a8" stroke-width="1.4" fill="none"/><circle cx="1160" cy="236" r="11" fill="none" stroke="#e8eef6" stroke-width="1.8"/><path d="M1160,247 L1160,276 M1143,258 L1177,258 M1160,276 L1147,298 M1160,276 L1173,298" stroke="#e8eef6" stroke-width="1.8" fill="none" stroke-linecap="round"/><text x="1160" y="320" font-family="'Segoe UI', Inter, system-ui, -apple-system, sans-serif" font-size="13.5" font-weight="700" fill="#e8eef6" text-anchor="middle">Administrator</text><path d="M1135,258 L1010,258" stroke="#7e91a8" stroke-width="1.4" fill="none"/><rect x="1126" y="554" width="76" height="52" rx="8" fill="#65523c"/><rect x="1122" y="550" width="76" height="52" rx="8" fill="#272a30" stroke="#e2ab6d" stroke-width="1.8"/><text x="1160" y="572" font-family="'Cascadia Mono', Consolas, 'SFMono-Regular', Menlo, monospace" font-size="11" font-weight="400" fill="#e2ab6d" text-anchor="middle">«system»</text><circle cx="1160" cy="588" r="7" fill="none" stroke="#e2ab6d" stroke-width="1.4"/><path d="M1160,584 L1160,588 L1163,590" stroke="#e2ab6d" stroke-width="1.4" fill="none"/><text x="1160" y="622" font-family="'Segoe UI', Inter, system-ui, -apple-system, sans-serif" font-size="13" font-weight="700" fill="#e8eef6" text-anchor="middle">Background services</text><path d="M1122,576 L1010,576" stroke="#7e91a8" stroke-width="1.4" fill="none"/><path d="M835,730 L835,792 L644,792" fill="none" stroke="#7e91a8" stroke-width="1.6" stroke-dasharray="6 5" marker-end="url(#arrow-muted)"/><text x="740" y="784" font-family="'Cascadia Mono', Consolas, 'SFMono-Regular', Menlo, monospace" font-size="11.5" font-weight="400" fill="#7e91a8" text-anchor="middle">«notifies»</text>
</svg>
